<svg width="304" height="43" viewBox="0 0 304 43" fill="none" xmlns="http://www.w3.org/2000/svg">
<g opacity="0.2" filter="url(#filter0_i_1_29)">
<path d="M30.22 10.124C28.812 8.204 27.212 6.844 25.42 6.044C23.66 5.212 21.452 4.796 18.796 4.796C14.476 4.796 11.052 5.932 8.524 8.204C6.028 10.444 4.78 13.468 4.78 17.276C4.78 21.052 5.964 24.06 8.332 26.3C10.732 28.54 14.044 29.66 18.268 29.66C20.796 29.66 22.956 29.244 24.748 28.412C26.572 27.58 28.268 26.204 29.836 24.284L33.772 26.636C29.804 31.436 24.652 33.836 18.316 33.836C12.812 33.836 8.412 32.364 5.116 29.42C1.82 26.444 0.172 22.46 0.172 17.468C0.172 12.316 1.868 8.22 5.26 5.18C8.652 2.14 13.164 0.619997 18.796 0.619997C25.388 0.619997 30.492 3.004 34.108 7.772L30.22 10.124ZM59.104 30.62C56.64 32.892 53.344 34.028 49.216 34.028C45.088 34.028 41.808 32.892 39.376 30.62C36.944 28.348 35.728 25.404 35.728 21.788C35.728 18.172 36.96 15.228 39.424 12.956C41.888 10.652 45.184 9.5 49.312 9.5C53.44 9.5 56.72 10.652 59.152 12.956C61.584 15.228 62.8 18.172 62.8 21.788C62.8 25.404 61.568 28.348 59.104 30.62ZM55.84 15.836C54.304 14.332 52.112 13.58 49.264 13.58C46.448 13.58 44.256 14.332 42.688 15.836C41.152 17.34 40.384 19.324 40.384 21.788C40.384 24.22 41.168 26.188 42.736 27.692C44.304 29.196 46.48 29.948 49.264 29.948C52.048 29.948 54.224 29.196 55.792 27.692C57.392 26.188 58.192 24.22 58.192 21.788C58.192 19.292 57.408 17.308 55.84 15.836ZM98.0763 33.5V18.476C98.0763 16.748 97.6603 15.5 96.8283 14.732C96.0283 13.964 94.7163 13.58 92.8923 13.58C90.8442 13.58 89.2442 14.076 88.0923 15.068C86.9723 16.06 86.4123 17.388 86.4123 19.052V33.5H81.8043V18.476C81.8043 16.748 81.3723 15.5 80.5083 14.732C79.6763 13.964 78.3323 13.58 76.4762 13.58C74.4282 13.58 72.8282 14.268 71.6762 15.644C70.6202 16.892 70.0922 18.492 70.0922 20.444V33.5H65.4842V9.98H70.0922V11.42C71.9803 10.14 74.2683 9.5 76.9563 9.5C80.2203 9.5 82.7483 10.508 84.5403 12.524C86.3963 10.508 89.1483 9.5 92.7963 9.5C95.9643 9.5 98.3963 10.236 100.092 11.708C101.82 13.148 102.684 15.26 102.684 18.044V33.5H98.0763ZM109.087 7.532C108.063 7.532 107.327 6.956 106.879 5.804V2.252C107.423 1.1 108.159 0.523998 109.087 0.523998C109.823 0.523998 110.623 1.02 111.487 2.012V6.092C110.655 7.052 109.855 7.532 109.087 7.532ZM106.879 33.5V9.116H111.487V33.5H106.879ZM134.082 33.5V18.476C134.082 15.212 131.97 13.58 127.746 13.58C125.346 13.58 123.474 14.22 122.13 15.5C120.818 16.748 120.162 18.396 120.162 20.444V33.5H115.554V9.98H120.162V11.564C122.178 10.188 124.69 9.5 127.698 9.5C130.77 9.5 133.298 10.172 135.282 11.516C137.554 13.052 138.69 15.228 138.69 18.044V33.5H134.082ZM154.693 42.092C151.621 42.092 149.093 41.516 147.109 40.364C144.549 38.924 143.141 36.172 142.885 32.108H147.445C147.669 34.316 148.373 35.852 149.557 36.716C150.613 37.516 152.341 37.916 154.741 37.916C157.525 37.916 159.525 37.42 160.741 36.428C161.989 35.436 162.613 33.932 162.613 31.916V31.484C160.277 33.18 157.493 34.028 154.261 34.028C151.413 34.028 148.949 33.388 146.869 32.108C143.317 29.9 141.541 26.476 141.541 21.836C141.541 18.22 142.709 15.26 145.045 12.956C147.381 10.652 150.565 9.5 154.597 9.5C157.733 9.5 160.405 10.348 162.613 12.044V10.028H167.221V31.964C167.221 35.324 166.101 37.868 163.861 39.596C161.749 41.26 158.693 42.092 154.693 42.092ZM160.405 16.076C158.933 14.476 156.965 13.676 154.501 13.676C151.941 13.676 149.909 14.444 148.405 15.98C146.933 17.516 146.197 19.468 146.197 21.836C146.197 24.236 146.885 26.172 148.261 27.644C149.637 29.116 151.605 29.852 154.165 29.852C156.821 29.852 158.885 29.132 160.357 27.692C161.861 26.252 162.613 24.332 162.613 21.932C162.613 19.596 161.877 17.644 160.405 16.076ZM205.21 33.836C200.858 33.836 197.306 33.1 194.554 31.628C191.034 29.708 189.274 26.7 189.274 22.604V20.492H193.93V22.46C193.93 27.26 197.706 29.66 205.258 29.66C208.01 29.66 210.25 29.276 211.978 28.508C214.026 27.644 215.05 26.348 215.05 24.62C215.05 23.372 214.73 22.46 214.09 21.884C213.45 21.308 212.314 20.796 210.682 20.348C209.722 20.092 207.466 19.612 203.914 18.908C199.722 18.076 196.858 17.292 195.322 16.556C192.026 14.988 190.378 12.62 190.378 9.452C190.378 3.564 195.018 0.619997 204.298 0.619997C213.962 0.619997 218.858 4.572 218.986 12.476H214.474C214.25 9.084 213.258 6.94 211.498 6.044C209.93 5.212 207.53 4.796 204.298 4.796C198.09 4.796 194.986 6.348 194.986 9.452C194.986 10.924 195.722 12.028 197.194 12.764C198.41 13.34 200.538 13.884 203.578 14.396C209.53 15.388 213.53 16.46 215.578 17.612C218.298 19.148 219.658 21.516 219.658 24.716C219.658 27.948 217.946 30.364 214.522 31.964C211.93 33.212 208.826 33.836 205.21 33.836ZM245.271 30.62C242.807 32.892 239.511 34.028 235.383 34.028C231.255 34.028 227.975 32.892 225.543 30.62C223.111 28.348 221.895 25.404 221.895 21.788C221.895 18.172 223.127 15.228 225.591 12.956C228.055 10.652 231.351 9.5 235.479 9.5C239.607 9.5 242.887 10.652 245.319 12.956C247.751 15.228 248.967 18.172 248.967 21.788C248.967 25.404 247.735 28.348 245.271 30.62ZM242.007 15.836C240.471 14.332 238.279 13.58 235.431 13.58C232.615 13.58 230.423 14.332 228.855 15.836C227.319 17.34 226.551 19.324 226.551 21.788C226.551 24.22 227.335 26.188 228.903 27.692C230.471 29.196 232.647 29.948 235.431 29.948C238.215 29.948 240.391 29.196 241.959 27.692C243.559 26.188 244.359 24.22 244.359 21.788C244.359 19.292 243.575 17.308 242.007 15.836ZM273.587 30.62C271.123 32.892 267.827 34.028 263.699 34.028C259.571 34.028 256.291 32.892 253.859 30.62C251.427 28.348 250.211 25.404 250.211 21.788C250.211 18.172 251.443 15.228 253.907 12.956C256.371 10.652 259.667 9.5 263.795 9.5C267.923 9.5 271.203 10.652 273.635 12.956C276.067 15.228 277.283 18.172 277.283 21.788C277.283 25.404 276.051 28.348 273.587 30.62ZM270.323 15.836C268.787 14.332 266.595 13.58 263.747 13.58C260.931 13.58 258.739 14.332 257.171 15.836C255.635 17.34 254.867 19.324 254.867 21.788C254.867 24.22 255.651 26.188 257.219 27.692C258.787 29.196 260.963 29.948 263.747 29.948C266.531 29.948 268.707 29.196 270.275 27.692C271.875 26.188 272.675 24.22 272.675 21.788C272.675 19.292 271.891 17.308 270.323 15.836ZM298.495 33.5V18.476C298.495 15.212 296.383 13.58 292.159 13.58C289.759 13.58 287.887 14.22 286.543 15.5C285.231 16.748 284.575 18.396 284.575 20.444V33.5H279.967V9.98H284.575V11.564C286.591 10.188 289.103 9.5 292.111 9.5C295.183 9.5 297.711 10.172 299.695 11.516C301.967 13.052 303.103 15.228 303.103 18.044V33.5H298.495Z" fill="#E1E1E1"/>
</g>
<defs>
<filter id="filter0_i_1_29" x="0.171997" y="0.524002" width="302.931" height="45.568" filterUnits="userSpaceOnUse" color-interpolation-filters="sRGB">
<feFlood flood-opacity="0" result="BackgroundImageFix"/>
<feBlend mode="normal" in="SourceGraphic" in2="BackgroundImageFix" result="shape"/>
<feColorMatrix in="SourceAlpha" type="matrix" values="0 0 0 0 0 0 0 0 0 0 0 0 0 0 0 0 0 0 127 0" result="hardAlpha"/>
<feOffset dy="4"/>
<feGaussianBlur stdDeviation="3"/>
<feComposite in2="hardAlpha" operator="arithmetic" k2="-1" k3="1"/>
<feColorMatrix type="matrix" values="0 0 0 0 0.27451 0 0 0 0 0.121569 0 0 0 0 0.0352941 0 0 0 1 0"/>
<feBlend mode="normal" in2="shape" result="effect1_innerShadow_1_29"/>
</filter>
</defs>
</svg>
