<svg width="161" height="66" viewBox="0 0 161 66" fill="none" xmlns="http://www.w3.org/2000/svg">
<g clip-path="url(#clip0_1_26)">
<path d="M5 0.25H156C158.347 0.25 160.25 2.15279 160.25 4.5V61.5C160.25 63.847 158.347 65.75 156 65.75H5C2.65279 65.75 0.75 63.847 0.75 61.5V4.5C0.75 2.15279 2.65279 0.25 5 0.25Z" fill="#FFFBF6" stroke="black"/>
<path d="M86.96 52.912C84.64 52.912 82.68 52.252 81.08 50.932C79.52 49.6119 78.74 47.7119 78.74 45.2319C78.74 43.3519 79.7 41.6319 81.62 40.0719C83.54 38.4719 86.56 37.2719 90.68 36.4719C91.32 36.3519 92.04 36.2319 92.84 36.1119C93.64 35.9519 94.48 35.7919 95.36 35.6319V30.8919C95.36 28.1719 95.02 26.2719 94.34 25.1919C93.7 24.0719 92.68 23.5119 91.28 23.5119C90.32 23.5119 89.56 23.8319 89 24.4719C88.44 25.0719 88.08 26.1319 87.92 27.6519L87.8 28.3119C87.72 30.0319 87.3 31.2919 86.54 32.0919C85.78 32.8919 84.84 33.2919 83.72 33.2919C82.68 33.2919 81.82 32.9719 81.14 32.3319C80.46 31.6919 80.12 30.8319 80.12 29.7519C80.12 28.1119 80.68 26.7319 81.8 25.6119C82.96 24.4919 84.48 23.6519 86.36 23.0919C88.24 22.5319 90.28 22.2519 92.48 22.2519C96.04 22.2519 98.78 23.1319 100.7 24.8919C102.66 26.6119 103.64 29.4319 103.64 33.3519V46.6119C103.64 48.4119 104.48 49.3119 106.16 49.3119H107.48L108.02 49.7919C107.26 50.752 106.42 51.492 105.5 52.012C104.62 52.532 103.36 52.792 101.72 52.792C99.96 52.792 98.56 52.392 97.52 51.592C96.52 50.752 95.86 49.6519 95.54 48.2919C94.34 49.5719 93.1 50.672 91.82 51.592C90.58 52.472 88.96 52.912 86.96 52.912ZM90.62 49.2519C91.42 49.2519 92.16 49.0719 92.84 48.7119C93.56 48.3119 94.4 47.7119 95.36 46.9119V36.8319C94.96 36.9119 94.56 36.9919 94.16 37.0719C93.76 37.1519 93.3 37.2319 92.78 37.3119C90.94 37.7919 89.46 38.6119 88.34 39.7719C87.26 40.8919 86.72 42.4119 86.72 44.3319C86.72 45.9719 87.1 47.2119 87.86 48.0519C88.62 48.8519 89.54 49.2519 90.62 49.2519ZM108.769 52.012V51.412L110.269 50.872C111.069 50.552 111.689 50.172 112.129 49.7319C112.569 49.2519 112.929 48.5919 113.209 47.7519L125.569 12.2919H130.669L142.849 47.9919C143.169 48.8719 143.529 49.5519 143.929 50.032C144.329 50.472 144.949 50.852 145.789 51.172L146.509 51.412V52.012H131.269V51.412L132.169 51.112C133.009 50.792 133.509 50.352 133.669 49.7919C133.869 49.1919 133.849 48.4919 133.609 47.6919L130.789 39.0519H117.469L114.589 47.5119C114.309 48.3919 114.209 49.0919 114.289 49.6119C114.409 50.132 114.889 50.552 115.729 50.872L117.049 51.412V52.012H108.769ZM117.889 37.8519H130.429L124.369 19.1919L117.889 37.8519Z" fill="#461F09"/>
</g>
<defs>
<clipPath id="clip0_1_26">
<rect x="0.5" width="160" height="66" rx="4" fill="white"/>
</clipPath>
</defs>
</svg>
