<svg width="342" height="184" viewBox="0 0 342 184" fill="none" xmlns="http://www.w3.org/2000/svg">
<rect width="342" height="184" fill="white"/>
<g clip-path="url(#clip0_1038_158)">
<path d="M15.25 75.125H90.75C91.9235 75.125 92.875 76.0764 92.875 77.25V105.75C92.875 106.923 91.9235 107.875 90.75 107.875H15.25C14.0764 107.875 13.125 106.923 13.125 105.75V77.25C13.125 76.0764 14.0764 75.125 15.25 75.125Z" fill="#FFFBF6" stroke="black"/>
<path d="M56.23 101.456C55.07 101.456 54.09 101.126 53.29 100.466C52.51 99.806 52.12 98.856 52.12 97.616C52.12 96.676 52.6 95.816 53.56 95.036C54.52 94.236 56.03 93.636 58.09 93.236C58.41 93.176 58.77 93.116 59.17 93.056C59.57 92.976 59.99 92.896 60.43 92.816V90.446C60.43 89.086 60.26 88.136 59.92 87.596C59.6 87.036 59.09 86.756 58.39 86.756C57.91 86.756 57.53 86.916 57.25 87.236C56.97 87.536 56.79 88.066 56.71 88.826L56.65 89.156C56.61 90.016 56.4 90.646 56.02 91.046C55.64 91.446 55.17 91.646 54.61 91.646C54.09 91.646 53.66 91.486 53.32 91.166C52.98 90.846 52.81 90.416 52.81 89.876C52.81 89.056 53.09 88.366 53.65 87.806C54.23 87.246 54.99 86.826 55.93 86.546C56.87 86.266 57.89 86.126 58.99 86.126C60.77 86.126 62.14 86.566 63.1 87.446C64.08 88.306 64.57 89.716 64.57 91.676V98.306C64.57 99.206 64.99 99.656 65.83 99.656H66.49L66.76 99.896C66.38 100.376 65.96 100.746 65.5 101.006C65.06 101.266 64.43 101.396 63.61 101.396C62.73 101.396 62.03 101.196 61.51 100.796C61.01 100.376 60.68 99.826 60.52 99.146C59.92 99.786 59.3 100.336 58.66 100.796C58.04 101.236 57.23 101.456 56.23 101.456ZM58.06 99.626C58.46 99.626 58.83 99.536 59.17 99.356C59.53 99.156 59.95 98.856 60.43 98.456V93.416C60.23 93.456 60.03 93.496 59.83 93.536C59.63 93.576 59.4 93.616 59.14 93.656C58.22 93.896 57.48 94.306 56.92 94.886C56.38 95.446 56.11 96.206 56.11 97.166C56.11 97.986 56.3 98.606 56.68 99.026C57.06 99.426 57.52 99.626 58.06 99.626ZM67.1345 101.006V100.706L67.8845 100.436C68.2845 100.276 68.5945 100.086 68.8145 99.866C69.0345 99.626 69.2145 99.296 69.3545 98.876L75.5345 81.146H78.0845L84.1745 98.996C84.3345 99.436 84.5145 99.776 84.7145 100.016C84.9145 100.236 85.2245 100.426 85.6445 100.586L86.0045 100.706V101.006H78.3845V100.706L78.8345 100.556C79.2545 100.396 79.5045 100.176 79.5845 99.896C79.6845 99.596 79.6745 99.246 79.5545 98.846L78.1445 94.526H71.4845L70.0445 98.756C69.9045 99.196 69.8545 99.546 69.8945 99.806C69.9545 100.066 70.1945 100.276 70.6145 100.436L71.2745 100.706V101.006H67.1345ZM71.6945 93.926H77.9645L74.9345 84.596L71.6945 93.926Z" fill="#461F09"/>
</g>
<g opacity="0.2" filter="url(#filter0_i_1038_158)">
<path d="M129.4 86.955C128.373 85.555 127.207 84.5633 125.9 83.98C124.617 83.3733 123.007 83.07 121.07 83.07C117.92 83.07 115.423 83.8983 113.58 85.555C111.76 87.1883 110.85 89.3933 110.85 92.17C110.85 94.9233 111.713 97.1167 113.44 98.75C115.19 100.383 117.605 101.2 120.685 101.2C122.528 101.2 124.103 100.897 125.41 100.29C126.74 99.6833 127.977 98.68 129.12 97.28L131.99 98.995C129.097 102.495 125.34 104.245 120.72 104.245C116.707 104.245 113.498 103.172 111.095 101.025C108.692 98.855 107.49 95.95 107.49 92.31C107.49 88.5533 108.727 85.5667 111.2 83.35C113.673 81.1333 116.963 80.025 121.07 80.025C125.877 80.025 129.598 81.7633 132.235 85.24L129.4 86.955ZM150.461 101.9C148.665 103.557 146.261 104.385 143.251 104.385C140.241 104.385 137.85 103.557 136.076 101.9C134.303 100.243 133.416 98.0967 133.416 95.46C133.416 92.8233 134.315 90.6767 136.111 89.02C137.908 87.34 140.311 86.5 143.321 86.5C146.331 86.5 148.723 87.34 150.496 89.02C152.27 90.6767 153.156 92.8233 153.156 95.46C153.156 98.0967 152.258 100.243 150.461 101.9ZM148.081 91.12C146.961 90.0233 145.363 89.475 143.286 89.475C141.233 89.475 139.635 90.0233 138.491 91.12C137.371 92.2167 136.811 93.6633 136.811 95.46C136.811 97.2333 137.383 98.6683 138.526 99.765C139.67 100.862 141.256 101.41 143.286 101.41C145.316 101.41 146.903 100.862 148.046 99.765C149.213 98.6683 149.796 97.2333 149.796 95.46C149.796 93.64 149.225 92.1933 148.081 91.12ZM178.879 104V93.045C178.879 91.785 178.575 90.875 177.969 90.315C177.385 89.755 176.429 89.475 175.099 89.475C173.605 89.475 172.439 89.8367 171.599 90.56C170.782 91.2833 170.374 92.2517 170.374 93.465V104H167.014V93.045C167.014 91.785 166.699 90.875 166.069 90.315C165.462 89.755 164.482 89.475 163.129 89.475C161.635 89.475 160.469 89.9767 159.629 90.98C158.859 91.89 158.474 93.0567 158.474 94.48V104H155.114V86.85H158.474V87.9C159.85 86.9667 161.519 86.5 163.479 86.5C165.859 86.5 167.702 87.235 169.009 88.705C170.362 87.235 172.369 86.5 175.029 86.5C177.339 86.5 179.112 87.0367 180.349 88.11C181.609 89.16 182.239 90.7 182.239 92.73V104H178.879ZM186.907 85.065C186.16 85.065 185.624 84.645 185.297 83.805V81.215C185.694 80.375 186.23 79.955 186.907 79.955C187.444 79.955 188.027 80.3167 188.657 81.04V84.015C188.05 84.715 187.467 85.065 186.907 85.065ZM185.297 104V86.22H188.657V104H185.297ZM205.133 104V93.045C205.133 90.665 203.593 89.475 200.513 89.475C198.763 89.475 197.398 89.9417 196.418 90.875C195.461 91.785 194.983 92.9867 194.983 94.48V104H191.623V86.85H194.983V88.005C196.453 87.0017 198.285 86.5 200.478 86.5C202.718 86.5 204.561 86.99 206.008 87.97C207.665 89.09 208.493 90.6767 208.493 92.73V104H205.133ZM220.162 110.265C217.922 110.265 216.078 109.845 214.632 109.005C212.765 107.955 211.738 105.948 211.552 102.985H214.877C215.04 104.595 215.553 105.715 216.417 106.345C217.187 106.928 218.447 107.22 220.197 107.22C222.227 107.22 223.685 106.858 224.572 106.135C225.482 105.412 225.937 104.315 225.937 102.845V102.53C224.233 103.767 222.203 104.385 219.847 104.385C217.77 104.385 215.973 103.918 214.457 102.985C211.867 101.375 210.572 98.8783 210.572 95.495C210.572 92.8583 211.423 90.7 213.127 89.02C214.83 87.34 217.152 86.5 220.092 86.5C222.378 86.5 224.327 87.1183 225.937 88.355V86.885H229.297V102.88C229.297 105.33 228.48 107.185 226.847 108.445C225.307 109.658 223.078 110.265 220.162 110.265ZM224.327 91.295C223.253 90.1283 221.818 89.545 220.022 89.545C218.155 89.545 216.673 90.105 215.577 91.225C214.503 92.345 213.967 93.7683 213.967 95.495C213.967 97.245 214.468 98.6567 215.472 99.73C216.475 100.803 217.91 101.34 219.777 101.34C221.713 101.34 223.218 100.815 224.292 99.765C225.388 98.715 225.937 97.315 225.937 95.565C225.937 93.8617 225.4 92.4383 224.327 91.295ZM256.997 104.245C253.824 104.245 251.234 103.708 249.227 102.635C246.66 101.235 245.377 99.0417 245.377 96.055V94.515H248.772V95.95C248.772 99.45 251.525 101.2 257.032 101.2C259.039 101.2 260.672 100.92 261.932 100.36C263.425 99.73 264.172 98.785 264.172 97.525C264.172 96.615 263.939 95.95 263.472 95.53C263.005 95.11 262.177 94.7367 260.987 94.41C260.287 94.2233 258.642 93.8733 256.052 93.36C252.995 92.7533 250.907 92.1817 249.787 91.645C247.384 90.5017 246.182 88.775 246.182 86.465C246.182 82.1717 249.565 80.025 256.332 80.025C263.379 80.025 266.949 82.9067 267.042 88.67H263.752C263.589 86.1967 262.865 84.6333 261.582 83.98C260.439 83.3733 258.689 83.07 256.332 83.07C251.805 83.07 249.542 84.2017 249.542 86.465C249.542 87.5383 250.079 88.3433 251.152 88.88C252.039 89.3 253.59 89.6967 255.807 90.07C260.147 90.7933 263.064 91.575 264.557 92.415C266.54 93.535 267.532 95.2617 267.532 97.595C267.532 99.9517 266.284 101.713 263.787 102.88C261.897 103.79 259.634 104.245 256.997 104.245ZM286.208 101.9C284.411 103.557 282.008 104.385 278.998 104.385C275.988 104.385 273.596 103.557 271.823 101.9C270.05 100.243 269.163 98.0967 269.163 95.46C269.163 92.8233 270.061 90.6767 271.858 89.02C273.655 87.34 276.058 86.5 279.068 86.5C282.078 86.5 284.47 87.34 286.243 89.02C288.016 90.6767 288.903 92.8233 288.903 95.46C288.903 98.0967 288.005 100.243 286.208 101.9ZM283.828 91.12C282.708 90.0233 281.11 89.475 279.033 89.475C276.98 89.475 275.381 90.0233 274.238 91.12C273.118 92.2167 272.558 93.6633 272.558 95.46C272.558 97.2333 273.13 98.6683 274.273 99.765C275.416 100.862 277.003 101.41 279.033 101.41C281.063 101.41 282.65 100.862 283.793 99.765C284.96 98.6683 285.543 97.2333 285.543 95.46C285.543 93.64 284.971 92.1933 283.828 91.12ZM306.855 101.9C305.059 103.557 302.655 104.385 299.645 104.385C296.635 104.385 294.244 103.557 292.47 101.9C290.697 100.243 289.81 98.0967 289.81 95.46C289.81 92.8233 290.709 90.6767 292.505 89.02C294.302 87.34 296.705 86.5 299.715 86.5C302.725 86.5 305.117 87.34 306.89 89.02C308.664 90.6767 309.55 92.8233 309.55 95.46C309.55 98.0967 308.652 100.243 306.855 101.9ZM304.475 91.12C303.355 90.0233 301.757 89.475 299.68 89.475C297.627 89.475 296.029 90.0233 294.885 91.12C293.765 92.2167 293.205 93.6633 293.205 95.46C293.205 97.2333 293.777 98.6683 294.92 99.765C296.064 100.862 297.65 101.41 299.68 101.41C301.71 101.41 303.297 100.862 304.44 99.765C305.607 98.6683 306.19 97.2333 306.19 95.46C306.19 93.64 305.619 92.1933 304.475 91.12ZM325.017 104V93.045C325.017 90.665 323.477 89.475 320.397 89.475C318.647 89.475 317.282 89.9417 316.302 90.875C315.346 91.785 314.867 92.9867 314.867 94.48V104H311.507V86.85H314.867V88.005C316.337 87.0017 318.169 86.5 320.362 86.5C322.602 86.5 324.446 86.99 325.892 87.97C327.549 89.09 328.377 90.6767 328.377 92.73V104H325.017Z" fill="#E1E1E1"/>
</g>
<defs>
<filter id="filter0_i_1038_158" x="107.49" y="79.955" width="220.887" height="34.31" filterUnits="userSpaceOnUse" color-interpolation-filters="sRGB">
<feFlood flood-opacity="0" result="BackgroundImageFix"/>
<feBlend mode="normal" in="SourceGraphic" in2="BackgroundImageFix" result="shape"/>
<feColorMatrix in="SourceAlpha" type="matrix" values="0 0 0 0 0 0 0 0 0 0 0 0 0 0 0 0 0 0 127 0" result="hardAlpha"/>
<feOffset dy="4"/>
<feGaussianBlur stdDeviation="3"/>
<feComposite in2="hardAlpha" operator="arithmetic" k2="-1" k3="1"/>
<feColorMatrix type="matrix" values="0 0 0 0 0.27451 0 0 0 0 0.121569 0 0 0 0 0.0352941 0 0 0 1 0"/>
<feBlend mode="normal" in2="shape" result="effect1_innerShadow_1038_158"/>
</filter>
<clipPath id="clip0_1038_158">
<rect x="13" y="75" width="80" height="33" rx="4" fill="white"/>
</clipPath>
</defs>
</svg>
