<svg width="342" height="184" viewBox="0 0 342 184" fill="none" xmlns="http://www.w3.org/2000/svg">
<rect width="342" height="184" fill="white"/>
<rect x="11" y="11" width="324" height="162" rx="3" fill="url(#paint0_linear_800_5852)" fill-opacity="0.1"/>
<path d="M39.52 80.21L27.13 38.56C26.8033 37.4867 26.4533 36.7167 26.08 36.25C25.7067 35.7367 25.0533 35.27 24.12 34.85L23.28 34.5V33.8H41.83V34.5L40.36 35.06C39.2867 35.48 38.5633 35.9933 38.19 36.6C37.8167 37.2067 37.7933 38.0467 38.12 39.12L45.75 68.24L54.01 43.81L52.4 38.84C52.0733 37.86 51.77 37.1133 51.49 36.6C51.21 36.0867 50.7433 35.6667 50.09 35.34L48.55 34.5V33.8H66.12V34.5L63.95 35.34C63.0167 35.6667 62.48 36.1567 62.34 36.81C62.2467 37.4167 62.3633 38.21 62.69 39.19L71.58 68.94L79.98 39.75C80.3067 38.63 80.4233 37.65 80.33 36.81C80.2367 35.97 79.6533 35.3633 78.58 34.99L77.11 34.5V33.8H86.84V34.5L85.02 35.2C84.0867 35.5267 83.4333 36.04 83.06 36.74C82.6867 37.44 82.36 38.3033 82.08 39.33L70.46 80.21H65.63L55.13 47.31L44.35 80.21H39.52ZM95.5337 45.28C98.567 45.28 101.157 45.91 103.304 47.17C105.45 48.3833 107.084 50.0633 108.204 52.21C109.37 54.31 109.954 56.7133 109.954 59.42C109.954 59.9333 109.93 60.47 109.884 61.03C109.837 61.5433 109.744 62.01 109.604 62.43H88.7437C88.7903 67.47 89.677 71.11 91.4037 73.35C93.177 75.5433 95.7903 76.64 99.2437 76.64C101.577 76.64 103.467 76.2667 104.914 75.52C106.36 74.7733 107.714 73.6767 108.974 72.23L109.674 72.86C108.227 75.4267 106.29 77.4333 103.864 78.88C101.484 80.3267 98.6137 81.05 95.2537 81.05C91.9403 81.05 89.0003 80.35 86.4337 78.95C83.867 77.5033 81.8603 75.45 80.4137 72.79C78.967 70.13 78.2437 66.9567 78.2437 63.27C78.2437 59.4433 79.0837 56.2 80.7637 53.54C82.4437 50.8333 84.5903 48.78 87.2037 47.38C89.8637 45.98 92.6403 45.28 95.5337 45.28ZM95.3237 46.68C93.9703 46.68 92.8037 47.1 91.8237 47.94C90.8903 48.7333 90.1437 50.18 89.5837 52.28C89.0703 54.3333 88.7903 57.25 88.7437 61.03H100.714C101.18 55.9433 100.994 52.28 100.154 50.04C99.3137 47.8 97.7037 46.68 95.3237 46.68ZM114.51 28.83C116.237 28.83 117.614 29.46 118.64 30.72C119.714 31.9333 120.25 33.5433 120.25 35.55C120.25 38.1633 119.48 40.6133 117.94 42.9C116.4 45.14 114.487 46.82 112.2 47.94L111.78 47.1C112.76 46.3533 113.624 45.3967 114.37 44.23C115.117 43.0633 115.654 41.6167 115.98 39.89L114.51 39.54C112.877 39.1667 111.594 38.49 110.66 37.51C109.774 36.4833 109.33 35.27 109.33 33.87C109.33 32.3767 109.82 31.1633 110.8 30.23C111.827 29.2967 113.064 28.83 114.51 28.83ZM135.009 80.21L122.619 50.46C121.966 48.8733 120.846 47.8233 119.259 47.31L118.279 47.03V46.33H136.409V47.03L135.149 47.31C133.329 47.7767 132.769 48.99 133.469 50.95L140.819 70.48L147.679 51.09C148.053 50.1567 148.146 49.3867 147.959 48.78C147.773 48.1733 147.213 47.73 146.279 47.45L144.529 47.03V46.33H154.679V47.03L152.649 47.52C151.763 47.7533 151.063 48.1033 150.549 48.57C150.083 49.0367 149.686 49.7367 149.359 50.67L139.069 80.21H135.009ZM167.973 45.28C171.006 45.28 173.596 45.91 175.743 47.17C177.889 48.3833 179.523 50.0633 180.643 52.21C181.809 54.31 182.393 56.7133 182.393 59.42C182.393 59.9333 182.369 60.47 182.323 61.03C182.276 61.5433 182.183 62.01 182.043 62.43H161.183C161.229 67.47 162.116 71.11 163.843 73.35C165.616 75.5433 168.229 76.64 171.683 76.64C174.016 76.64 175.906 76.2667 177.353 75.52C178.799 74.7733 180.153 73.6767 181.413 72.23L182.113 72.86C180.666 75.4267 178.729 77.4333 176.303 78.88C173.923 80.3267 171.053 81.05 167.693 81.05C164.379 81.05 161.439 80.35 158.873 78.95C156.306 77.5033 154.299 75.45 152.853 72.79C151.406 70.13 150.683 66.9567 150.683 63.27C150.683 59.4433 151.523 56.2 153.203 53.54C154.883 50.8333 157.029 48.78 159.643 47.38C162.303 45.98 165.079 45.28 167.973 45.28ZM167.763 46.68C166.409 46.68 165.243 47.1 164.263 47.94C163.329 48.7333 162.583 50.18 162.023 52.28C161.509 54.3333 161.229 57.25 161.183 61.03H173.153C173.619 55.9433 173.433 52.28 172.593 50.04C171.753 47.8 170.143 46.68 167.763 46.68Z" fill="#363636"/>
<path d="M39.66 124.89C36.44 124.89 33.71 124.353 31.47 123.28V125.66C31.47 127.107 32.1933 127.97 33.64 128.25L46.8 130.7C48.9933 131.12 50.9767 131.68 52.75 132.38C54.5233 133.033 55.9467 133.99 57.02 135.25C58.0933 136.463 58.63 138.143 58.63 140.29C58.63 142.577 57.8833 144.677 56.39 146.59C54.8967 148.55 52.68 150.113 49.74 151.28C46.8467 152.493 43.23 153.1 38.89 153.1C35.1567 153.1 32.1933 152.703 30 151.91C27.8067 151.163 26.2433 150.183 25.31 148.97C24.4233 147.757 23.98 146.473 23.98 145.12C23.98 143.44 24.54 141.737 25.66 140.01C26.8267 138.33 28.25 136.977 29.93 135.95C28.4833 135.39 27.4333 134.667 26.78 133.78C26.1267 132.893 25.8 131.937 25.8 130.91C25.8 129.977 26.0333 129.113 26.5 128.32C27.0133 127.48 27.62 126.64 28.32 125.8L30.63 122.86C27.2233 120.9 25.52 117.82 25.52 113.62C25.52 110.26 26.71 107.53 29.09 105.43C31.5167 103.33 35.0633 102.28 39.73 102.28C42.11 102.28 44.1867 102.56 45.96 103.12C47.78 103.68 49.2733 104.473 50.44 105.5C51.9333 105.267 53.3333 104.893 54.64 104.38C55.9933 103.82 57.2067 103.073 58.28 102.14L59.26 102.84V106.41H51.35C53.03 108.277 53.87 110.68 53.87 113.62C53.87 116.887 52.6567 119.593 50.23 121.74C47.85 123.84 44.3267 124.89 39.66 124.89ZM39.59 123.49C41.4567 123.49 42.81 122.72 43.65 121.18C44.5367 119.64 44.98 117.073 44.98 113.48C44.98 109.887 44.5367 107.367 43.65 105.92C42.81 104.427 41.5033 103.68 39.73 103.68C38.0033 103.68 36.6967 104.45 35.81 105.99C34.9233 107.483 34.48 110.027 34.48 113.62C34.48 117.213 34.8767 119.757 35.67 121.25C36.51 122.743 37.8167 123.49 39.59 123.49ZM29.16 142.88C29.16 145.633 30 147.71 31.68 149.11C33.4067 150.51 36.1133 151.21 39.8 151.21C43.6733 151.21 46.59 150.58 48.55 149.32C50.51 148.06 51.49 146.287 51.49 144C51.49 142.693 51 141.643 50.02 140.85C49.0867 140.057 47.4767 139.45 45.19 139.03L32.52 136.65C32.1467 136.557 31.7733 136.463 31.4 136.37C30.7467 137.303 30.21 138.353 29.79 139.52C29.37 140.733 29.16 141.853 29.16 142.88ZM74.0037 138.05C70.4571 138.05 67.3771 137.327 64.7637 135.88C62.1504 134.387 60.1204 132.287 58.6737 129.58C57.2737 126.873 56.5737 123.7 56.5737 120.06C56.5737 116.42 57.3204 113.27 58.8137 110.61C60.3537 107.95 62.4304 105.897 65.0437 104.45C67.7037 103.003 70.6904 102.28 74.0037 102.28C77.3171 102.28 80.2804 103.003 82.8937 104.45C85.5071 105.85 87.5604 107.88 89.0538 110.54C90.5938 113.2 91.3638 116.373 91.3638 120.06C91.3638 123.747 90.6404 126.943 89.1937 129.65C87.7937 132.31 85.7871 134.387 83.1738 135.88C80.6071 137.327 77.5504 138.05 74.0037 138.05ZM74.0037 136.65C75.6371 136.65 76.9438 136.183 77.9238 135.25C78.9038 134.317 79.6038 132.66 80.0238 130.28C80.4904 127.9 80.7238 124.54 80.7238 120.2C80.7238 115.813 80.4904 112.43 80.0238 110.05C79.6038 107.67 78.9038 106.013 77.9238 105.08C76.9438 104.147 75.6371 103.68 74.0037 103.68C72.3704 103.68 71.0404 104.147 70.0137 105.08C69.0337 106.013 68.3104 107.67 67.8437 110.05C67.4237 112.43 67.2138 115.813 67.2138 120.2C67.2138 124.54 67.4237 127.9 67.8437 130.28C68.3104 132.66 69.0337 134.317 70.0137 135.25C71.0404 136.183 72.3704 136.65 74.0037 136.65ZM103.265 138.05C100.278 138.05 97.9448 137.303 96.2648 135.81C94.6315 134.317 93.8148 131.937 93.8148 128.67V104.73H88.9848V104.03L90.6648 103.75C92.1115 103.423 93.3482 102.957 94.3748 102.35C95.4482 101.743 96.4982 100.927 97.5248 99.9L103.265 93.53H103.965L103.755 103.33H111.595V104.73H103.685V129.93C103.685 131.563 104.035 132.8 104.735 133.64C105.482 134.48 106.415 134.9 107.535 134.9C108.515 134.9 109.378 134.667 110.125 134.2C110.872 133.687 111.618 133.01 112.365 132.17L113.065 132.87C112.132 134.457 110.848 135.717 109.215 136.65C107.582 137.583 105.598 138.05 103.265 138.05ZM128.542 153.8C126.675 153.8 125.182 153.333 124.062 152.4C122.989 151.467 122.452 150.277 122.452 148.83C122.452 147.523 122.919 146.473 123.852 145.68C124.785 144.887 125.835 144.49 127.002 144.49C128.169 144.49 129.149 144.723 129.942 145.19C130.735 145.703 131.435 146.427 132.042 147.36L132.532 147.92C133.559 149.32 134.585 149.297 135.612 147.85C136.032 147.15 136.499 146.217 137.012 145.05C137.572 143.93 138.202 142.413 138.902 140.5L125.322 108.02C124.995 107.133 124.645 106.433 124.272 105.92C123.899 105.36 123.292 104.893 122.452 104.52L121.192 104.03V103.33H138.622V103.96L137.222 104.52C136.195 104.847 135.659 105.383 135.612 106.13C135.612 106.83 135.799 107.717 136.172 108.79L143.452 127.69L150.382 108.58C150.755 107.507 150.895 106.62 150.802 105.92C150.709 105.173 150.125 104.66 149.052 104.38L147.582 104.03V103.33H157.312V104.03L155.772 104.52C154.699 104.847 153.952 105.313 153.532 105.92C153.112 106.527 152.715 107.367 152.342 108.44L141.072 139.17C139.252 144.07 137.432 147.733 135.612 150.16C133.792 152.587 131.435 153.8 128.542 153.8ZM171.296 138.05C167.749 138.05 164.669 137.327 162.056 135.88C159.442 134.387 157.412 132.287 155.966 129.58C154.566 126.873 153.866 123.7 153.866 120.06C153.866 116.42 154.612 113.27 156.106 110.61C157.646 107.95 159.722 105.897 162.336 104.45C164.996 103.003 167.982 102.28 171.296 102.28C174.609 102.28 177.572 103.003 180.186 104.45C182.799 105.85 184.852 107.88 186.346 110.54C187.886 113.2 188.656 116.373 188.656 120.06C188.656 123.747 187.932 126.943 186.486 129.65C185.086 132.31 183.079 134.387 180.466 135.88C177.899 137.327 174.842 138.05 171.296 138.05ZM171.296 136.65C172.929 136.65 174.236 136.183 175.216 135.25C176.196 134.317 176.896 132.66 177.316 130.28C177.782 127.9 178.016 124.54 178.016 120.2C178.016 115.813 177.782 112.43 177.316 110.05C176.896 107.67 176.196 106.013 175.216 105.08C174.236 104.147 172.929 103.68 171.296 103.68C169.662 103.68 168.332 104.147 167.306 105.08C166.326 106.013 165.602 107.67 165.136 110.05C164.716 112.43 164.506 115.813 164.506 120.2C164.506 124.54 164.716 127.9 165.136 130.28C165.602 132.66 166.326 134.317 167.306 135.25C168.332 136.183 169.662 136.65 171.296 136.65ZM199.927 138.05C198.107 138.05 196.427 137.7 194.887 137C193.393 136.3 192.203 135.18 191.317 133.64C190.477 132.053 190.08 129.977 190.127 127.41L190.337 109.42C190.337 108.347 190.15 107.577 189.777 107.11C189.403 106.643 188.82 106.317 188.027 106.13L187.187 105.85V105.15L199.717 102.7L200.417 103.4L200.067 113.34V130.21C200.067 131.703 200.487 132.8 201.327 133.5C202.213 134.2 203.31 134.55 204.617 134.55C205.923 134.55 207.09 134.363 208.117 133.99C209.143 133.617 210.17 133.057 211.197 132.31L211.477 109.49C211.477 108.417 211.313 107.67 210.987 107.25C210.66 106.783 210.053 106.457 209.167 106.27L208.467 106.06V105.36L220.717 102.7L221.417 103.4L221.207 113.34V132.31C221.207 133.337 221.347 134.13 221.627 134.69C221.907 135.25 222.513 135.717 223.447 136.09L224.147 136.3V137L211.897 137.7L211.267 133.57C209.727 134.83 208.047 135.903 206.227 136.79C204.453 137.63 202.353 138.05 199.927 138.05ZM231.873 138.05C230.193 138.05 228.77 137.467 227.603 136.3C226.437 135.133 225.853 133.733 225.853 132.1C225.853 130.467 226.437 129.043 227.603 127.83C228.77 126.617 230.193 126.01 231.873 126.01C233.553 126.01 234.977 126.617 236.143 127.83C237.31 129.043 237.893 130.467 237.893 132.1C237.893 133.733 237.31 135.133 236.143 136.3C234.977 137.467 233.553 138.05 231.873 138.05Z" fill="black"/>
<defs>
<linearGradient id="paint0_linear_800_5852" x1="23.5" y1="47.6429" x2="168.296" y2="178.216" gradientUnits="userSpaceOnUse">
<stop stop-color="#F3831B"/>
<stop offset="1" stop-color="#281104" stop-opacity="0"/>
</linearGradient>
</defs>
</svg>
