<svg width="231" height="244" viewBox="0 0 231 244" fill="none" xmlns="http://www.w3.org/2000/svg">
<rect width="231" height="244" fill="white"/>
<g clip-path="url(#clip0_1038_167)">
<path d="M30.925 48.1629H129.075C130.601 48.1629 131.837 49.4026 131.837 50.9318V88.0682C131.837 89.5973 130.601 90.8371 129.075 90.8371H30.925C29.3993 90.8371 28.1625 89.5973 28.1625 88.0682V50.9318C28.1625 49.4026 29.3993 48.1629 30.925 48.1629Z" fill="#FFFBF6" stroke="black"/>
<path d="M84.199 82.4729C82.691 82.4729 81.417 82.0429 80.377 81.1829C79.363 80.3229 78.856 79.085 78.856 77.4693C78.856 76.2444 79.48 75.1238 80.728 74.1075C81.976 73.065 83.939 72.2832 86.617 71.762C87.033 71.6838 87.501 71.6056 88.021 71.5275C88.541 71.4232 89.087 71.319 89.659 71.2147V68.1265C89.659 66.3544 89.438 65.1165 88.996 64.4129C88.58 63.6832 87.917 63.3184 87.007 63.3184C86.383 63.3184 85.889 63.5268 85.525 63.9438C85.161 64.3347 84.927 65.0253 84.823 66.0156L84.745 66.4456C84.693 67.5662 84.42 68.3871 83.926 68.9084C83.432 69.4296 82.821 69.6902 82.093 69.6902C81.417 69.6902 80.858 69.4817 80.416 69.0647C79.974 68.6478 79.753 68.0875 79.753 67.3838C79.753 66.3153 80.117 65.4162 80.845 64.6865C81.599 63.9568 82.587 63.4096 83.809 63.0447C85.031 62.6799 86.357 62.4975 87.787 62.4975C90.101 62.4975 91.882 63.0708 93.13 64.2175C94.404 65.3381 95.041 67.1753 95.041 69.7293V78.3684C95.041 79.5411 95.587 80.1275 96.679 80.1275H97.537L97.888 80.4402C97.394 81.0657 96.848 81.5478 96.25 81.8866C95.678 82.2254 94.859 82.3948 93.793 82.3948C92.649 82.3948 91.739 82.1342 91.063 81.6129C90.413 81.0657 89.984 80.349 89.776 79.4629C88.996 80.2968 88.19 81.0135 87.358 81.6129C86.552 82.1863 85.499 82.4729 84.199 82.4729ZM86.578 80.0884C87.098 80.0884 87.579 79.9711 88.021 79.7365C88.489 79.4759 89.035 79.085 89.659 78.5638V71.9965C89.399 72.0487 89.139 72.1008 88.879 72.1529C88.619 72.205 88.32 72.2571 87.982 72.3093C86.786 72.622 85.824 73.1562 85.096 73.912C84.394 74.6417 84.043 75.632 84.043 76.8829C84.043 77.9514 84.29 78.7593 84.784 79.3065C85.278 79.8278 85.876 80.0884 86.578 80.0884ZM98.3749 81.8866V81.4957L99.3499 81.1438C99.8699 80.9354 100.273 80.6878 100.559 80.4011C100.845 80.0884 101.079 79.6584 101.261 79.1111L109.295 56.0084H112.61L120.527 79.2675C120.735 79.8408 120.969 80.2838 121.229 80.5966C121.489 80.8832 121.892 81.1308 122.438 81.3393L122.906 81.4957V81.8866H113V81.4957L113.585 81.3002C114.131 81.0917 114.456 80.8051 114.56 80.4402C114.69 80.0493 114.677 79.5932 114.521 79.072L112.688 73.4429H104.03L102.158 78.9547C101.976 79.5281 101.911 79.9841 101.963 80.3229C102.041 80.6617 102.353 80.9354 102.899 81.1438L103.757 81.4957V81.8866H98.3749ZM104.303 72.6611H112.454L108.515 60.5038L104.303 72.6611Z" fill="#461F09"/>
</g>
<g opacity="0.2" filter="url(#filter0_i_1038_167)">
<path d="M60 124.65C58.5333 122.65 56.8667 121.233 55 120.4C53.1667 119.533 50.8667 119.1 48.1 119.1C43.6 119.1 40.0333 120.283 37.4 122.65C34.8 124.983 33.5 128.133 33.5 132.1C33.5 136.033 34.7333 139.167 37.2 141.5C39.7 143.833 43.15 145 47.55 145C50.1833 145 52.4333 144.567 54.3 143.7C56.2 142.833 57.9667 141.4 59.6 139.4L63.7 141.85C59.5667 146.85 54.2 149.35 47.6 149.35C41.8667 149.35 37.2833 147.817 33.85 144.75C30.4167 141.65 28.7 137.5 28.7 132.3C28.7 126.933 30.4667 122.667 34 119.5C37.5333 116.333 42.2333 114.75 48.1 114.75C54.9667 114.75 60.2833 117.233 64.05 122.2L60 124.65ZM90.0875 146C87.5208 148.367 84.0875 149.55 79.7875 149.55C75.4875 149.55 72.0708 148.367 69.5375 146C67.0042 143.633 65.7375 140.567 65.7375 136.8C65.7375 133.033 67.0208 129.967 69.5875 127.6C72.1542 125.2 75.5875 124 79.8875 124C84.1875 124 87.6042 125.2 90.1375 127.6C92.6708 129.967 93.9375 133.033 93.9375 136.8C93.9375 140.567 92.6542 143.633 90.0875 146ZM86.6875 130.6C85.0875 129.033 82.8042 128.25 79.8375 128.25C76.9042 128.25 74.6208 129.033 72.9875 130.6C71.3875 132.167 70.5875 134.233 70.5875 136.8C70.5875 139.333 71.4042 141.383 73.0375 142.95C74.6708 144.517 76.9375 145.3 79.8375 145.3C82.7375 145.3 85.0042 144.517 86.6375 142.95C88.3042 141.383 89.1375 139.333 89.1375 136.8C89.1375 134.2 88.3208 132.133 86.6875 130.6ZM130.684 149V133.35C130.684 131.55 130.25 130.25 129.384 129.45C128.55 128.65 127.184 128.25 125.284 128.25C123.15 128.25 121.484 128.767 120.284 129.8C119.117 130.833 118.534 132.217 118.534 133.95V149H113.734V133.35C113.734 131.55 113.284 130.25 112.384 129.45C111.517 128.65 110.117 128.25 108.184 128.25C106.05 128.25 104.384 128.967 103.184 130.4C102.084 131.7 101.534 133.367 101.534 135.4V149H96.7336V124.5H101.534V126C103.5 124.667 105.884 124 108.684 124C112.084 124 114.717 125.05 116.584 127.15C118.517 125.05 121.384 124 125.184 124C128.484 124 131.017 124.767 132.784 126.3C134.584 127.8 135.484 130 135.484 132.9V149H130.684ZM142.153 121.95C141.086 121.95 140.319 121.35 139.853 120.15V116.45C140.419 115.25 141.186 114.65 142.153 114.65C142.919 114.65 143.753 115.167 144.653 116.2V120.45C143.786 121.45 142.953 121.95 142.153 121.95ZM139.853 149V123.6H144.653V149H139.853ZM168.19 149V133.35C168.19 129.95 165.99 128.25 161.59 128.25C159.09 128.25 157.14 128.917 155.74 130.25C154.373 131.55 153.69 133.267 153.69 135.4V149H148.89V124.5H153.69V126.15C155.79 124.717 158.407 124 161.54 124C164.74 124 167.373 124.7 169.44 126.1C171.807 127.7 172.99 129.967 172.99 132.9V149H168.19ZM189.659 157.95C186.459 157.95 183.826 157.35 181.759 156.15C179.093 154.65 177.626 151.783 177.359 147.55H182.109C182.343 149.85 183.076 151.45 184.309 152.35C185.409 153.183 187.209 153.6 189.709 153.6C192.609 153.6 194.693 153.083 195.959 152.05C197.259 151.017 197.909 149.45 197.909 147.35V146.9C195.476 148.667 192.576 149.55 189.209 149.55C186.243 149.55 183.676 148.883 181.509 147.55C177.809 145.25 175.959 141.683 175.959 136.85C175.959 133.083 177.176 130 179.609 127.6C182.043 125.2 185.359 124 189.559 124C192.826 124 195.609 124.883 197.909 126.65V124.55H202.709V147.4C202.709 150.9 201.543 153.55 199.209 155.35C197.009 157.083 193.826 157.95 189.659 157.95ZM195.609 130.85C194.076 129.183 192.026 128.35 189.459 128.35C186.793 128.35 184.676 129.15 183.109 130.75C181.576 132.35 180.809 134.383 180.809 136.85C180.809 139.35 181.526 141.367 182.959 142.9C184.393 144.433 186.443 145.2 189.109 145.2C191.876 145.2 194.026 144.45 195.559 142.95C197.126 141.45 197.909 139.45 197.909 136.95C197.909 134.517 197.143 132.483 195.609 130.85ZM44.5 202.35C39.9667 202.35 36.2667 201.583 33.4 200.05C29.7333 198.05 27.9 194.917 27.9 190.65V188.45H32.75V190.5C32.75 195.5 36.6833 198 44.55 198C47.4167 198 49.75 197.6 51.55 196.8C53.6833 195.9 54.75 194.55 54.75 192.75C54.75 191.45 54.4167 190.5 53.75 189.9C53.0833 189.3 51.9 188.767 50.2 188.3C49.2 188.033 46.85 187.533 43.15 186.8C38.7833 185.933 35.8 185.117 34.2 184.35C30.7667 182.717 29.05 180.25 29.05 176.95C29.05 170.817 33.8833 167.75 43.55 167.75C53.6167 167.75 58.7167 171.867 58.85 180.1H54.15C53.9167 176.567 52.8833 174.333 51.05 173.4C49.4167 172.533 46.9167 172.1 43.55 172.1C37.0833 172.1 33.85 173.717 33.85 176.95C33.85 178.483 34.6167 179.633 36.15 180.4C37.4167 181 39.6333 181.567 42.8 182.1C49 183.133 53.1667 184.25 55.3 185.45C58.1333 187.05 59.55 189.517 59.55 192.85C59.55 196.217 57.7667 198.733 54.2 200.4C51.5 201.7 48.2667 202.35 44.5 202.35ZM86.2301 199C83.6634 201.367 80.2301 202.55 75.9301 202.55C71.6301 202.55 68.2134 201.367 65.6801 199C63.1467 196.633 61.8801 193.567 61.8801 189.8C61.8801 186.033 63.1634 182.967 65.7301 180.6C68.2967 178.2 71.7301 177 76.0301 177C80.3301 177 83.7467 178.2 86.2801 180.6C88.8134 182.967 90.0801 186.033 90.0801 189.8C90.0801 193.567 88.7967 196.633 86.2301 199ZM82.8301 183.6C81.2301 182.033 78.9467 181.25 75.9801 181.25C73.0467 181.25 70.7634 182.033 69.1301 183.6C67.5301 185.167 66.7301 187.233 66.7301 189.8C66.7301 192.333 67.5467 194.383 69.1801 195.95C70.8134 197.517 73.0801 198.3 75.9801 198.3C78.8801 198.3 81.1467 197.517 82.7801 195.95C84.4467 194.383 85.2801 192.333 85.2801 189.8C85.2801 187.2 84.4634 185.133 82.8301 183.6ZM115.726 199C113.16 201.367 109.726 202.55 105.426 202.55C101.126 202.55 97.7095 201.367 95.1762 199C92.6428 196.633 91.3762 193.567 91.3762 189.8C91.3762 186.033 92.6595 182.967 95.2262 180.6C97.7928 178.2 101.226 177 105.526 177C109.826 177 113.243 178.2 115.776 180.6C118.31 182.967 119.576 186.033 119.576 189.8C119.576 193.567 118.293 196.633 115.726 199ZM112.326 183.6C110.726 182.033 108.443 181.25 105.476 181.25C102.543 181.25 100.26 182.033 98.6262 183.6C97.0262 185.167 96.2262 187.233 96.2262 189.8C96.2262 192.333 97.0428 194.383 98.6762 195.95C100.31 197.517 102.576 198.3 105.476 198.3C108.376 198.3 110.643 197.517 112.276 195.95C113.943 194.383 114.776 192.333 114.776 189.8C114.776 187.2 113.96 185.133 112.326 183.6ZM141.672 202V186.35C141.672 182.95 139.472 181.25 135.072 181.25C132.572 181.25 130.622 181.917 129.222 183.25C127.856 184.55 127.172 186.267 127.172 188.4V202H122.372V177.5H127.172V179.15C129.272 177.717 131.889 177 135.022 177C138.222 177 140.856 177.7 142.922 179.1C145.289 180.7 146.472 182.967 146.472 185.9V202H141.672Z" fill="#E1E1E1"/>
</g>
<defs>
<filter id="filter0_i_1038_167" x="27.9" y="114.65" width="174.809" height="91.9" filterUnits="userSpaceOnUse" color-interpolation-filters="sRGB">
<feFlood flood-opacity="0" result="BackgroundImageFix"/>
<feBlend mode="normal" in="SourceGraphic" in2="BackgroundImageFix" result="shape"/>
<feColorMatrix in="SourceAlpha" type="matrix" values="0 0 0 0 0 0 0 0 0 0 0 0 0 0 0 0 0 0 127 0" result="hardAlpha"/>
<feOffset dy="4"/>
<feGaussianBlur stdDeviation="3"/>
<feComposite in2="hardAlpha" operator="arithmetic" k2="-1" k3="1"/>
<feColorMatrix type="matrix" values="0 0 0 0 0.27451 0 0 0 0 0.121569 0 0 0 0 0.0352941 0 0 0 1 0"/>
<feBlend mode="normal" in2="shape" result="effect1_innerShadow_1038_167"/>
</filter>
<clipPath id="clip0_1038_167">
<rect x="28" y="48" width="104" height="43" rx="4" fill="white"/>
</clipPath>
</defs>
</svg>
