<svg width="231" height="244" viewBox="0 0 231 244" fill="none" xmlns="http://www.w3.org/2000/svg">
<rect width="231" height="244" fill="white"/>
<rect x="10" y="10" width="212" height="224" rx="3" fill="url(#paint0_linear_800_5856)" fill-opacity="0.1"/>
<path d="M34.3719 80.21L21.9819 38.56C21.6552 37.4867 21.3052 36.7167 20.9319 36.25C20.5585 35.7367 19.9052 35.27 18.9719 34.85L18.1319 34.5V33.8H36.6819V34.5L35.2119 35.06C34.1385 35.48 33.4152 35.9933 33.0419 36.6C32.6685 37.2067 32.6452 38.0467 32.9719 39.12L40.6019 68.24L48.8619 43.81L47.2519 38.84C46.9252 37.86 46.6219 37.1133 46.3419 36.6C46.0619 36.0867 45.5952 35.6667 44.9419 35.34L43.4019 34.5V33.8H60.9719V34.5L58.8019 35.34C57.8685 35.6667 57.3319 36.1567 57.1919 36.81C57.0985 37.4167 57.2152 38.21 57.5419 39.19L66.4319 68.94L74.8319 39.75C75.1585 38.63 75.2752 37.65 75.1819 36.81C75.0885 35.97 74.5052 35.3633 73.4319 34.99L71.9619 34.5V33.8H81.6919V34.5L79.8719 35.2C78.9385 35.5267 78.2852 36.04 77.9119 36.74C77.5385 37.44 77.2119 38.3033 76.9319 39.33L65.3119 80.21H60.4819L49.9819 47.31L39.2019 80.21H34.3719ZM90.3855 45.28C93.4189 45.28 96.0089 45.91 98.1555 47.17C100.302 48.3833 101.936 50.0633 103.056 52.21C104.222 54.31 104.806 56.7133 104.806 59.42C104.806 59.9333 104.782 60.47 104.736 61.03C104.689 61.5433 104.596 62.01 104.456 62.43H83.5955C83.6422 67.47 84.5289 71.11 86.2555 73.35C88.0289 75.5433 90.6422 76.64 94.0955 76.64C96.4289 76.64 98.3189 76.2667 99.7655 75.52C101.212 74.7733 102.566 73.6767 103.826 72.23L104.526 72.86C103.079 75.4267 101.142 77.4333 98.7155 78.88C96.3355 80.3267 93.4655 81.05 90.1055 81.05C86.7922 81.05 83.8522 80.35 81.2855 78.95C78.7189 77.5033 76.7122 75.45 75.2655 72.79C73.8189 70.13 73.0955 66.9567 73.0955 63.27C73.0955 59.4433 73.9355 56.2 75.6155 53.54C77.2955 50.8333 79.4422 48.78 82.0555 47.38C84.7155 45.98 87.4922 45.28 90.3855 45.28ZM90.1755 46.68C88.8222 46.68 87.6555 47.1 86.6755 47.94C85.7422 48.7333 84.9955 50.18 84.4355 52.28C83.9222 54.3333 83.6422 57.25 83.5955 61.03H95.5655C96.0322 55.9433 95.8455 52.28 95.0055 50.04C94.1655 47.8 92.5555 46.68 90.1755 46.68ZM109.362 28.83C111.089 28.83 112.465 29.46 113.492 30.72C114.565 31.9333 115.102 33.5433 115.102 35.55C115.102 38.1633 114.332 40.6133 112.792 42.9C111.252 45.14 109.339 46.82 107.052 47.94L106.632 47.1C107.612 46.3533 108.475 45.3967 109.222 44.23C109.969 43.0633 110.505 41.6167 110.832 39.89L109.362 39.54C107.729 39.1667 106.445 38.49 105.512 37.51C104.625 36.4833 104.182 35.27 104.182 33.87C104.182 32.3767 104.672 31.1633 105.652 30.23C106.679 29.2967 107.915 28.83 109.362 28.83ZM129.861 80.21L117.471 50.46C116.818 48.8733 115.698 47.8233 114.111 47.31L113.131 47.03V46.33H131.261V47.03L130.001 47.31C128.181 47.7767 127.621 48.99 128.321 50.95L135.671 70.48L142.531 51.09C142.905 50.1567 142.998 49.3867 142.811 48.78C142.625 48.1733 142.065 47.73 141.131 47.45L139.381 47.03V46.33H149.531V47.03L147.501 47.52C146.615 47.7533 145.915 48.1033 145.401 48.57C144.935 49.0367 144.538 49.7367 144.211 50.67L133.921 80.21H129.861ZM162.825 45.28C165.858 45.28 168.448 45.91 170.595 47.17C172.741 48.3833 174.375 50.0633 175.495 52.21C176.661 54.31 177.245 56.7133 177.245 59.42C177.245 59.9333 177.221 60.47 177.175 61.03C177.128 61.5433 177.035 62.01 176.895 62.43H156.035C156.081 67.47 156.968 71.11 158.695 73.35C160.468 75.5433 163.081 76.64 166.535 76.64C168.868 76.64 170.758 76.2667 172.205 75.52C173.651 74.7733 175.005 73.6767 176.265 72.23L176.965 72.86C175.518 75.4267 173.581 77.4333 171.155 78.88C168.775 80.3267 165.905 81.05 162.545 81.05C159.231 81.05 156.291 80.35 153.725 78.95C151.158 77.5033 149.151 75.45 147.705 72.79C146.258 70.13 145.535 66.9567 145.535 63.27C145.535 59.4433 146.375 56.2 148.055 53.54C149.735 50.8333 151.881 48.78 154.495 47.38C157.155 45.98 159.931 45.28 162.825 45.28ZM162.615 46.68C161.261 46.68 160.095 47.1 159.115 47.94C158.181 48.7333 157.435 50.18 156.875 52.28C156.361 54.3333 156.081 57.25 156.035 61.03H168.005C168.471 55.9433 168.285 52.28 167.445 50.04C166.605 47.8 164.995 46.68 162.615 46.68Z" fill="#363636"/>
<path d="M34.5119 124.89C31.2919 124.89 28.5619 124.353 26.3219 123.28V125.66C26.3219 127.107 27.0452 127.97 28.4919 128.25L41.6519 130.7C43.8452 131.12 45.8285 131.68 47.6019 132.38C49.3752 133.033 50.7985 133.99 51.8719 135.25C52.9452 136.463 53.4819 138.143 53.4819 140.29C53.4819 142.577 52.7352 144.677 51.2419 146.59C49.7485 148.55 47.5319 150.113 44.5919 151.28C41.6985 152.493 38.0819 153.1 33.7419 153.1C30.0085 153.1 27.0452 152.703 24.8519 151.91C22.6585 151.163 21.0952 150.183 20.1619 148.97C19.2752 147.757 18.8319 146.473 18.8319 145.12C18.8319 143.44 19.3919 141.737 20.5119 140.01C21.6785 138.33 23.1019 136.977 24.7819 135.95C23.3352 135.39 22.2852 134.667 21.6319 133.78C20.9785 132.893 20.6519 131.937 20.6519 130.91C20.6519 129.977 20.8852 129.113 21.3519 128.32C21.8652 127.48 22.4719 126.64 23.1719 125.8L25.4819 122.86C22.0752 120.9 20.3719 117.82 20.3719 113.62C20.3719 110.26 21.5619 107.53 23.9419 105.43C26.3685 103.33 29.9152 102.28 34.5819 102.28C36.9619 102.28 39.0385 102.56 40.8119 103.12C42.6319 103.68 44.1252 104.473 45.2919 105.5C46.7852 105.267 48.1852 104.893 49.4919 104.38C50.8452 103.82 52.0585 103.073 53.1319 102.14L54.1119 102.84V106.41H46.2019C47.8819 108.277 48.7219 110.68 48.7219 113.62C48.7219 116.887 47.5085 119.593 45.0819 121.74C42.7019 123.84 39.1785 124.89 34.5119 124.89ZM34.4419 123.49C36.3085 123.49 37.6619 122.72 38.5019 121.18C39.3885 119.64 39.8319 117.073 39.8319 113.48C39.8319 109.887 39.3885 107.367 38.5019 105.92C37.6619 104.427 36.3552 103.68 34.5819 103.68C32.8552 103.68 31.5485 104.45 30.6619 105.99C29.7752 107.483 29.3319 110.027 29.3319 113.62C29.3319 117.213 29.7285 119.757 30.5219 121.25C31.3619 122.743 32.6685 123.49 34.4419 123.49ZM24.0119 142.88C24.0119 145.633 24.8519 147.71 26.5319 149.11C28.2585 150.51 30.9652 151.21 34.6519 151.21C38.5252 151.21 41.4419 150.58 43.4019 149.32C45.3619 148.06 46.3419 146.287 46.3419 144C46.3419 142.693 45.8519 141.643 44.8719 140.85C43.9385 140.057 42.3285 139.45 40.0419 139.03L27.3719 136.65C26.9985 136.557 26.6252 136.463 26.2519 136.37C25.5985 137.303 25.0619 138.353 24.6419 139.52C24.2219 140.733 24.0119 141.853 24.0119 142.88ZM68.8556 138.05C65.309 138.05 62.229 137.327 59.6156 135.88C57.0023 134.387 54.9723 132.287 53.5256 129.58C52.1256 126.873 51.4256 123.7 51.4256 120.06C51.4256 116.42 52.1723 113.27 53.6656 110.61C55.2056 107.95 57.2823 105.897 59.8956 104.45C62.5556 103.003 65.5423 102.28 68.8556 102.28C72.169 102.28 75.1323 103.003 77.7456 104.45C80.359 105.85 82.4123 107.88 83.9056 110.54C85.4456 113.2 86.2156 116.373 86.2156 120.06C86.2156 123.747 85.4923 126.943 84.0456 129.65C82.6456 132.31 80.639 134.387 78.0256 135.88C75.459 137.327 72.4023 138.05 68.8556 138.05ZM68.8556 136.65C70.489 136.65 71.7956 136.183 72.7756 135.25C73.7556 134.317 74.4556 132.66 74.8756 130.28C75.3423 127.9 75.5756 124.54 75.5756 120.2C75.5756 115.813 75.3423 112.43 74.8756 110.05C74.4556 107.67 73.7556 106.013 72.7756 105.08C71.7956 104.147 70.489 103.68 68.8556 103.68C67.2223 103.68 65.8923 104.147 64.8656 105.08C63.8856 106.013 63.1623 107.67 62.6956 110.05C62.2756 112.43 62.0656 115.813 62.0656 120.2C62.0656 124.54 62.2756 127.9 62.6956 130.28C63.1623 132.66 63.8856 134.317 64.8656 135.25C65.8923 136.183 67.2223 136.65 68.8556 136.65ZM98.1167 138.05C95.13 138.05 92.7967 137.303 91.1167 135.81C89.4834 134.317 88.6667 131.937 88.6667 128.67V104.73H83.8367V104.03L85.5167 103.75C86.9634 103.423 88.2 102.957 89.2267 102.35C90.3 101.743 91.35 100.927 92.3767 99.9L98.1167 93.53H98.8167L98.6067 103.33H106.447V104.73H98.5367V129.93C98.5367 131.563 98.8867 132.8 99.5867 133.64C100.333 134.48 101.267 134.9 102.387 134.9C103.367 134.9 104.23 134.667 104.977 134.2C105.723 133.687 106.47 133.01 107.217 132.17L107.917 132.87C106.983 134.457 105.7 135.717 104.067 136.65C102.433 137.583 100.45 138.05 98.1167 138.05ZM25.6919 213.8C23.8252 213.8 22.3319 213.333 21.2119 212.4C20.1385 211.467 19.6019 210.277 19.6019 208.83C19.6019 207.523 20.0685 206.473 21.0019 205.68C21.9352 204.887 22.9852 204.49 24.1519 204.49C25.3185 204.49 26.2985 204.723 27.0919 205.19C27.8852 205.703 28.5852 206.427 29.1919 207.36L29.6819 207.92C30.7085 209.32 31.7352 209.297 32.7619 207.85C33.1819 207.15 33.6485 206.217 34.1619 205.05C34.7219 203.93 35.3519 202.413 36.0519 200.5L22.4719 168.02C22.1452 167.133 21.7952 166.433 21.4219 165.92C21.0485 165.36 20.4419 164.893 19.6019 164.52L18.3419 164.03V163.33H35.7719V163.96L34.3719 164.52C33.3452 164.847 32.8085 165.383 32.7619 166.13C32.7619 166.83 32.9485 167.717 33.3219 168.79L40.6019 187.69L47.5319 168.58C47.9052 167.507 48.0452 166.62 47.9519 165.92C47.8585 165.173 47.2752 164.66 46.2019 164.38L44.7319 164.03V163.33H54.4619V164.03L52.9219 164.52C51.8485 164.847 51.1019 165.313 50.6819 165.92C50.2619 166.527 49.8652 167.367 49.4919 168.44L38.2219 199.17C36.4019 204.07 34.5819 207.733 32.7619 210.16C30.9419 212.587 28.5852 213.8 25.6919 213.8ZM68.4455 198.05C64.8988 198.05 61.8188 197.327 59.2055 195.88C56.5921 194.387 54.5621 192.287 53.1155 189.58C51.7155 186.873 51.0155 183.7 51.0155 180.06C51.0155 176.42 51.7621 173.27 53.2555 170.61C54.7955 167.95 56.8721 165.897 59.4855 164.45C62.1455 163.003 65.1321 162.28 68.4455 162.28C71.7588 162.28 74.7221 163.003 77.3355 164.45C79.9488 165.85 82.0021 167.88 83.4955 170.54C85.0355 173.2 85.8055 176.373 85.8055 180.06C85.8055 183.747 85.0821 186.943 83.6355 189.65C82.2355 192.31 80.2288 194.387 77.6155 195.88C75.0488 197.327 71.9921 198.05 68.4455 198.05ZM68.4455 196.65C70.0788 196.65 71.3855 196.183 72.3655 195.25C73.3455 194.317 74.0455 192.66 74.4655 190.28C74.9321 187.9 75.1655 184.54 75.1655 180.2C75.1655 175.813 74.9321 172.43 74.4655 170.05C74.0455 167.67 73.3455 166.013 72.3655 165.08C71.3855 164.147 70.0788 163.68 68.4455 163.68C66.8121 163.68 65.4821 164.147 64.4555 165.08C63.4755 166.013 62.7521 167.67 62.2855 170.05C61.8655 172.43 61.6555 175.813 61.6555 180.2C61.6555 184.54 61.8655 187.9 62.2855 190.28C62.7521 192.66 63.4755 194.317 64.4555 195.25C65.4821 196.183 66.8121 196.65 68.4455 196.65ZM97.0766 198.05C95.2566 198.05 93.5766 197.7 92.0366 197C90.5432 196.3 89.3532 195.18 88.4666 193.64C87.6266 192.053 87.2299 189.977 87.2766 187.41L87.4866 169.42C87.4866 168.347 87.2999 167.577 86.9266 167.11C86.5532 166.643 85.9699 166.317 85.1766 166.13L84.3366 165.85V165.15L96.8666 162.7L97.5666 163.4L97.2166 173.34V190.21C97.2166 191.703 97.6366 192.8 98.4766 193.5C99.3632 194.2 100.46 194.55 101.767 194.55C103.073 194.55 104.24 194.363 105.267 193.99C106.293 193.617 107.32 193.057 108.347 192.31L108.627 169.49C108.627 168.417 108.463 167.67 108.137 167.25C107.81 166.783 107.203 166.457 106.317 166.27L105.617 166.06V165.36L117.867 162.7L118.567 163.4L118.357 173.34V192.31C118.357 193.337 118.497 194.13 118.777 194.69C119.057 195.25 119.663 195.717 120.597 196.09L121.297 196.3V197L109.047 197.7L108.417 193.57C106.877 194.83 105.197 195.903 103.377 196.79C101.603 197.63 99.5032 198.05 97.0766 198.05ZM129.023 198.05C127.343 198.05 125.92 197.467 124.753 196.3C123.587 195.133 123.003 193.733 123.003 192.1C123.003 190.467 123.587 189.043 124.753 187.83C125.92 186.617 127.343 186.01 129.023 186.01C130.703 186.01 132.127 186.617 133.293 187.83C134.46 189.043 135.043 190.467 135.043 192.1C135.043 193.733 134.46 195.133 133.293 196.3C132.127 197.467 130.703 198.05 129.023 198.05Z" fill="black"/>
<defs>
<linearGradient id="paint0_linear_800_5856" x1="18.179" y1="60.6667" x2="163.503" y2="122.681" gradientUnits="userSpaceOnUse">
<stop stop-color="#F3831B"/>
<stop offset="1" stop-color="#281104" stop-opacity="0"/>
</linearGradient>
</defs>
</svg>
